<svg width="1920" height="1080" xmlns="http://www.w3.org/2000/svg">
  <defs>
    <linearGradient id="bg2" x1="0%" y1="0%" x2="100%" y2="100%">
      <stop offset="0%" style="stop-color:#1e3a8a;stop-opacity:1" />
      <stop offset="50%" style="stop-color:#3730a3;stop-opacity:1" />
      <stop offset="100%" style="stop-color:#581c87;stop-opacity:1" />
    </linearGradient>
  </defs>
  <rect width="1920" height="1080" fill="url(#bg2)"/>
  
  <!-- Academic building silhouette -->
  <g opacity="0.4">
    <polygon points="200,1080 200,400 400,300 600,400 600,1080" fill="#1e293b"/>
    <polygon points="800,1080 800,350 1000,250 1200,350 1200,1080" fill="#1e293b"/>
    <polygon points="1400,1080 1400,450 1500,400 1600,450 1600,1080" fill="#1e293b"/>
  </g>
  
  <!-- Windows in buildings -->
  <g opacity="0.8">
    <rect x="220" y="420" width="15" height="20" fill="#fbbf24"/>
    <rect x="250" y="420" width="15" height="20" fill="#fbbf24"/>
    <rect x="280" y="420" width="15" height="20" fill="#fbbf24"/>
    <rect x="220" y="460" width="15" height="20" fill="#fbbf24"/>
    <rect x="280" y="460" width="15" height="20" fill="#fbbf24"/>
    
    <rect x="820" y="370" width="15" height="20" fill="#60a5fa"/>
    <rect x="850" y="370" width="15" height="20" fill="#60a5fa"/>
    <rect x="880" y="370" width="15" height="20" fill="#60a5fa"/>
    <rect x="820" y="410" width="15" height="20" fill="#60a5fa"/>
    <rect x="880" y="410" width="15" height="20" fill="#60a5fa"/>
  </g>
  
  <!-- Stars -->
  <g opacity="0.7">
    <circle cx="150" cy="100" r="1.5" fill="#ffffff"/>
    <circle cx="350" cy="80" r="1" fill="#ffffff"/>
    <circle cx="550" cy="120" r="1.2" fill="#ffffff"/>
    <circle cx="750" cy="70" r="1.8" fill="#ffffff"/>
    <circle cx="950" cy="110" r="1" fill="#ffffff"/>
    <circle cx="1150" cy="90" r="1.5" fill="#ffffff"/>
    <circle cx="1350" cy="130" r="1.2" fill="#ffffff"/>
    <circle cx="1550" cy="85" r="1" fill="#ffffff"/>
    <circle cx="1750" cy="105" r="1.4" fill="#ffffff"/>
  </g>
  
  <!-- Moon -->
  <circle cx="1600" cy="200" r="60" fill="#fbbf24" opacity="0.8"/>
  <circle cx="1615" cy="185" r="8" fill="#1e293b" opacity="0.3"/>
  <circle cx="1590" cy="210" r="5" fill="#1e293b" opacity="0.3"/>
  <circle cx="1605" cy="220" r="3" fill="#1e293b" opacity="0.3"/>
</svg>
