<svg width="1920" height="1080" xmlns="http://www.w3.org/2000/svg">
  <defs>
    <linearGradient id="bg3" x1="0%" y1="0%" x2="100%" y2="100%">
      <stop offset="0%" style="stop-color:#0c4a6e;stop-opacity:1" />
      <stop offset="30%" style="stop-color:#0e7490;stop-opacity:1" />
      <stop offset="70%" style="stop-color:#0891b2;stop-opacity:1" />
      <stop offset="100%" style="stop-color:#06b6d4;stop-opacity:1" />
    </linearGradient>
    <radialGradient id="glow" cx="50%" cy="30%">
      <stop offset="0%" style="stop-color:#fbbf24;stop-opacity:0.6" />
      <stop offset="50%" style="stop-color:#f59e0b;stop-opacity:0.3" />
      <stop offset="100%" style="stop-color:#d97706;stop-opacity:0" />
    </radialGradient>
  </defs>
  <rect width="1920" height="1080" fill="url(#bg3)"/>
  
  <!-- Library interior with arched ceiling -->
  <g opacity="0.4">
    <!-- Main library hall -->
    <path d="M0 600 Q960 200 1920 600 L1920 1080 L0 1080 Z" fill="#1e293b"/>
    
    <!-- Columns -->
    <rect x="200" y="400" width="40" height="680" fill="#374151"/>
    <rect x="400" y="350" width="40" height="730" fill="#374151"/>
    <rect x="600" y="320" width="40" height="760" fill="#374151"/>
    <rect x="800" y="300" width="40" height="780" fill="#374151"/>
    <rect x="1080" y="300" width="40" height="780" fill="#374151"/>
    <rect x="1280" y="320" width="40" height="760" fill="#374151"/>
    <rect x="1480" y="350" width="40" height="730" fill="#374151"/>
    <rect x="1680" y="400" width="40" height="680" fill="#374151"/>
    
    <!-- Arched tops -->
    <ellipse cx="220" cy="400" rx="20" ry="30" fill="#374151"/>
    <ellipse cx="420" cy="350" rx="20" ry="30" fill="#374151"/>
    <ellipse cx="620" cy="320" rx="20" ry="30" fill="#374151"/>
    <ellipse cx="820" cy="300" rx="20" ry="30" fill="#374151"/>
    <ellipse cx="1100" cy="300" rx="20" ry="30" fill="#374151"/>
    <ellipse cx="1300" cy="320" rx="20" ry="30" fill="#374151"/>
    <ellipse cx="1500" cy="350" rx="20" ry="30" fill="#374151"/>
    <ellipse cx="1700" cy="400" rx="20" ry="30" fill="#374151"/>
  </g>
  
  <!-- Bookshelves between columns -->
  <g opacity="0.5">
    <!-- Left side shelves -->
    <rect x="250" y="450" width="140" height="80" fill="#4a5568"/>
    <rect x="250" y="550" width="140" height="80" fill="#4a5568"/>
    <rect x="250" y="650" width="140" height="80" fill="#4a5568"/>
    
    <rect x="450" y="400" width="140" height="80" fill="#4a5568"/>
    <rect x="450" y="500" width="140" height="80" fill="#4a5568"/>
    <rect x="450" y="600" width="140" height="80" fill="#4a5568"/>
    <rect x="450" y="700" width="140" height="80" fill="#4a5568"/>
    
    <!-- Center shelves -->
    <rect x="650" y="380" width="140" height="80" fill="#4a5568"/>
    <rect x="650" y="480" width="140" height="80" fill="#4a5568"/>
    <rect x="650" y="580" width="140" height="80" fill="#4a5568"/>
    <rect x="650" y="680" width="140" height="80" fill="#4a5568"/>
    
    <rect x="1130" y="380" width="140" height="80" fill="#4a5568"/>
    <rect x="1130" y="480" width="140" height="80" fill="#4a5568"/>
    <rect x="1130" y="580" width="140" height="80" fill="#4a5568"/>
    <rect x="1130" y="680" width="140" height="80" fill="#4a5568"/>
    
    <!-- Right side shelves -->
    <rect x="1330" y="400" width="140" height="80" fill="#4a5568"/>
    <rect x="1330" y="500" width="140" height="80" fill="#4a5568"/>
    <rect x="1330" y="600" width="140" height="80" fill="#4a5568"/>
    <rect x="1330" y="700" width="140" height="80" fill="#4a5568"/>
    
    <rect x="1530" y="450" width="140" height="80" fill="#4a5568"/>
    <rect x="1530" y="550" width="140" height="80" fill="#4a5568"/>
    <rect x="1530" y="650" width="140" height="80" fill="#4a5568"/>
  </g>
  
  <!-- Books on shelves -->
  <g opacity="0.6">
    <!-- Left side books -->
    <rect x="260" y="460" width="8" height="60" fill="#ef4444"/>
    <rect x="270" y="460" width="12" height="60" fill="#3b82f6"/>
    <rect x="284" y="460" width="10" height="60" fill="#10b981"/>
    <rect x="296" y="460" width="15" height="60" fill="#f59e0b"/>
    <rect x="313" y="460" width="9" height="60" fill="#8b5cf6"/>
    <rect x="324" y="460" width="13" height="60" fill="#06b6d4"/>
    <rect x="339" y="460" width="11" height="60" fill="#ec4899"/>
    <rect x="352" y="460" width="14" height="60" fill="#84cc16"/>
    <rect x="368" y="460" width="8" height="60" fill="#f97316"/>
    
    <!-- Center books -->
    <rect x="660" y="390" width="10" height="60" fill="#6366f1"/>
    <rect x="672" y="390" width="12" height="60" fill="#14b8a6"/>
    <rect x="686" y="390" width="9" height="60" fill="#f43f5e"/>
    <rect x="697" y="390" width="13" height="60" fill="#a855f7"/>
    <rect x="712" y="390" width="11" height="60" fill="#22d3ee"/>
    <rect x="725" y="390" width="8" height="60" fill="#facc15"/>
    <rect x="735" y="390" width="14" height="60" fill="#fb7185"/>
    <rect x="751" y="390" width="10" height="60" fill="#4ade80"/>
    <rect x="763" y="390" width="12" height="60" fill="#fbbf24"/>
    
    <!-- Right side books -->
    <rect x="1340" y="410" width="11" height="60" fill="#dc2626"/>
    <rect x="1353" y="410" width="9" height="60" fill="#2563eb"/>
    <rect x="1364" y="410" width="13" height="60" fill="#059669"/>
    <rect x="1379" y="410" width="10" height="60" fill="#d97706"/>
    <rect x="1391" y="410" width="12" height="60" fill="#7c3aed"/>
    <rect x="1405" y="410" width="8" height="60" fill="#0891b2"/>
    <rect x="1415" y="410" width="14" height="60" fill="#be185d"/>
    <rect x="1431" y="410" width="11" height="60" fill="#65a30d"/>
  </g>
  
  <!-- Central reading area with tables -->
  <g opacity="0.3">
    <ellipse cx="960" cy="750" rx="200" ry="80" fill="#4a5568"/>
    <ellipse cx="960" cy="900" rx="150" ry="60" fill="#4a5568"/>
  </g>
  
  <!-- Ambient lighting effects -->
  <circle cx="960" cy="300" r="300" fill="url(#glow)"/>
  
  <!-- Floating knowledge symbols -->
  <g opacity="0.4">
    <!-- Academic symbols -->
    <g transform="translate(300,200)">
      <circle r="20" fill="none" stroke="#fbbf24" stroke-width="2"/>
      <path d="M-10,-5 L0,5 L10,-5" stroke="#fbbf24" stroke-width="2" fill="none"/>
    </g>
    
    <g transform="translate(700,150)">
      <rect x="-10" y="-15" width="20" height="30" fill="none" stroke="#60a5fa" stroke-width="2"/>
      <line x1="-6" y1="-8" x2="6" y2="-8" stroke="#60a5fa" stroke-width="1"/>
      <line x1="-6" y1="0" x2="6" y2="0" stroke="#60a5fa" stroke-width="1"/>
      <line x1="-6" y1="8" x2="6" y2="8" stroke="#60a5fa" stroke-width="1"/>
    </g>
    
    <g transform="translate(1200,180)">
      <polygon points="0,-15 12,10 -12,10" fill="none" stroke="#34d399" stroke-width="2"/>
      <circle cy="0" r="4" fill="#34d399"/>
    </g>
    
    <g transform="translate(1600,220)">
      <circle r="15" fill="none" stroke="#f472b6" stroke-width="2"/>
      <path d="M-8,-8 L8,8 M8,-8 L-8,8" stroke="#f472b6" stroke-width="2"/>
    </g>
  </g>
  
  <!-- Architectural details -->
  <g opacity="0.2">
    <!-- Ceiling decorations -->
    <path d="M0 200 Q480 150 960 200 Q1440 150 1920 200" stroke="#fbbf24" stroke-width="3" fill="none"/>
    <path d="M0 250 Q480 200 960 250 Q1440 200 1920 250" stroke="#fbbf24" stroke-width="2" fill="none"/>
  </g>
</svg>
